<svg width="1440" height="1420" viewBox="0 0 1440 1420" fill="none" xmlns="http://www.w3.org/2000/svg">
<ellipse cx="1039.99" cy="1257.2" rx="80.5711" ry="141.362" transform="rotate(31.4212 1039.99 1257.2)" fill="#4097FF"/>
<path d="M975.718 1058.72C993.424 1093.43 1001.42 1128.92 1000.06 1158.23C998.704 1187.56 987.99 1210.59 968.4 1220.58C948.81 1230.58 923.878 1225.73 899.336 1209.62C874.809 1193.51 850.77 1166.2 833.064 1131.49C815.358 1096.78 807.359 1061.29 808.719 1031.97C810.078 1002.65 820.793 979.618 840.383 969.625C859.973 959.632 884.904 964.476 909.446 980.591C933.974 996.698 958.012 1024.01 975.718 1058.72Z" stroke="black"/>
<path d="M826.334 825.867C873.446 869.384 882.895 935.504 847.748 973.554C812.602 1011.6 745.941 1007.42 698.829 963.905C651.717 920.388 642.268 854.268 677.414 816.218C712.561 778.167 779.222 782.35 826.334 825.867Z" stroke="black"/>
<path d="M679.694 702.331C735.577 733.728 758.611 798.566 731.342 847.101C704.073 895.636 636.715 909.686 580.832 878.289C524.95 846.891 501.915 782.054 529.184 733.519C556.454 684.984 623.811 670.933 679.694 702.331Z" stroke="black"/>
<path d="M549.084 616.19C602.312 646.095 623.242 709.726 595.962 758.28C568.682 806.833 503.45 822.054 450.222 792.148C396.995 762.242 376.065 698.611 403.344 650.058C430.624 601.504 495.856 586.284 549.084 616.19Z" stroke="black"/>
<ellipse cx="320.675" cy="665.638" rx="108.565" ry="110.969" transform="rotate(-60.6706 320.675 665.638)" fill="#4097FF"/>
<path d="M366.445 535.777C412.577 561.696 429.403 619.282 404.058 664.391C378.714 709.5 320.778 725.083 274.647 699.164C228.515 673.245 211.69 615.658 237.034 570.549C262.379 525.44 320.314 509.858 366.445 535.777Z" stroke="black"/>
<path d="M351.122 426.321C397.253 452.239 414.079 509.826 388.734 554.935C363.39 600.044 305.454 615.626 259.323 589.707C213.191 563.789 196.366 506.202 221.71 461.093C247.055 415.984 304.99 400.402 351.122 426.321Z" stroke="black"/>
<path d="M327.041 332.188C373.173 358.107 389.998 415.694 364.654 460.803C339.309 505.912 281.374 521.494 235.243 495.575C189.111 469.656 172.285 412.07 197.63 366.961C222.974 321.852 280.91 306.269 327.041 332.188Z" stroke="black"/>
<path d="M276.691 207.408C322.823 233.327 339.648 290.913 314.304 336.022C288.959 381.132 231.024 396.714 184.893 370.795C138.761 344.876 121.935 287.289 147.28 242.18C172.624 197.071 230.56 181.489 276.691 207.408Z" stroke="black"/>
<path d="M226.341 106.708C272.473 132.627 289.298 190.214 263.954 235.323C238.61 280.432 180.674 296.014 134.543 270.095C88.4113 244.176 71.5856 186.59 96.93 141.48C122.274 96.3714 180.21 80.7893 226.341 106.708Z" stroke="black"/>
<ellipse cx="130.092" cy="129.295" rx="94.2046" ry="96.2906" transform="rotate(-60.6706 130.092 129.295)" fill="#4097FF"/>
<path d="M454.168 591.127C507.396 621.033 528.326 684.664 501.046 733.217C473.766 781.771 408.534 796.991 355.306 767.085C302.079 737.18 281.149 673.549 308.429 624.995C335.708 576.442 400.941 561.221 454.168 591.127Z" stroke="black"/>
<path d="M1224.68 1090.23C1256.54 1138.19 1238.96 1206.01 1185.27 1241.67C1131.57 1277.33 1062.25 1267.24 1030.4 1219.28C998.54 1171.31 1016.11 1103.5 1069.81 1067.84C1123.5 1032.17 1192.83 1042.27 1224.68 1090.23Z" stroke="black"/>
<path d="M1312.54 1028.69C1344.42 1076.69 1331.13 1141.61 1282.83 1173.69C1234.54 1205.76 1169.55 1192.85 1137.66 1144.84C1105.78 1096.84 1119.08 1031.93 1167.37 999.85C1215.66 967.773 1280.66 980.689 1312.54 1028.69Z" stroke="black"/>
<path d="M1388.52 1001.8C1415.24 1051.82 1395.45 1114.52 1344.31 1141.84C1293.16 1169.15 1230.05 1150.72 1203.34 1100.7C1176.62 1050.68 1196.41 987.977 1247.55 960.663C1298.7 933.349 1361.81 951.782 1388.52 1001.8Z" stroke="black"/>
<path d="M130.253 126.969C197.021 211.615 327.493 442.203 315.234 687.385C512.62 679.723 926 811.29 1000.43 1398.85C1008.09 1280.64 1106.82 1041.15 1440.44 1028.89" stroke="black" stroke-width="3"/>
</svg>
